<?xml version="1.0" standalone="no"?>
<svg xmlns:xlink="http://www.w3.org/1999/xlink" width="16" height="16" xmlns="http://www.w3.org/2000/svg" viewBox="0 0 16 16" fill="none" data-test-id="nftCard-CRONOS-logo-cronos-logo"><path fill-rule="evenodd" clip-rule="evenodd" d="M1.33203 4.16761L1.33323 4.16692V4.16512L7.99723 0.333087V0.335294L8.00121 0.333008L8.00138 0.333108V0.333008L14.6654 4.16761V11.8343L8.00138 15.6663V15.6662L8.00121 15.6663L7.99723 15.664V15.6664L5.15363 14.0301L1.33203 11.8343V4.16761ZM7.99723 13.3918V13.392L8.00121 13.3943L12.6908 10.6983V5.3035L8.00138 2.60755V2.60509L8.00121 2.60499L3.30904 5.30103V10.6966L7.99723 13.3918ZM7.9985 11.5798L11.1111 9.79099L9.81549 9.04309L7.9985 10.0891L6.18152 9.04309V6.95616L7.9985 5.91012L9.81549 6.95616L11.1111 6.21083L7.9985 4.41946L4.8833 6.21083V9.79099L7.9985 11.5798Z" fill="#7B849B"/></svg>